<svg version="1.0" xmlns="http://www.w3.org/2000/svg"
 width="512.000000pt" height="512.000000pt" viewBox="0 0 512.000000 512.000000"
 preserveAspectRatio="xMidYMid meet">

<g transform="translate(0.000000,512.000000) scale(0.100000,-0.100000)"
fill="#FFFFF" stroke="none">
<path d="M2805 4726 c-73 -33 -114 -115 -94 -188 5 -21 33 -65 62 -99 148
-174 222 -351 234 -558 6 -92 -12 -261 -26 -261 -4 0 -13 12 -20 26 -35 77
-190 263 -242 290 -36 18 -112 18 -147 0 -66 -34 -100 -110 -81 -179 6 -21 36
-68 68 -105 31 -37 69 -83 83 -102 32 -43 92 -160 85 -166 -3 -3 -22 2 -43 11
-318 135 -697 80 -951 -138 -60 -52 -268 -296 -439 -517 -324 -416 -676 -945
-878 -1318 -227 -416 -302 -699 -228 -864 28 -64 103 -133 171 -159 176 -67
531 56 1061 367 331 194 974 639 1225 848 264 221 368 314 409 365 65 84 130
209 162 316 24 80 27 107 28 235 1 186 -21 279 -100 432 -19 37 -34 69 -34 72
0 4 39 6 86 6 172 0 385 -97 550 -251 81 -75 115 -93 172 -86 107 12 176 133
128 225 -40 78 -288 269 -425 328 -34 15 -61 30 -61 34 0 4 33 13 73 20 101
19 333 16 430 -4 216 -46 411 -142 564 -277 83 -74 111 -89 164 -89 116 0 193
125 140 228 -39 77 -227 222 -404 312 -233 117 -546 184 -771 165 l-79 -7 40
73 c119 218 208 506 220 711 7 133 -5 186 -58 239 -78 78 -184 68 -253 -25
-16 -20 -20 -40 -19 -79 5 -131 3 -171 -12 -248 -38 -187 -102 -354 -196 -514
-79 -133 -76 -133 -71 2 9 257 -57 487 -204 710 -129 194 -226 261 -319 219z
m-284 -1608 c100 -37 157 -74 234 -152 118 -120 175 -256 175 -421 0 -100 -21
-190 -62 -269 -54 -102 -266 -301 -555 -519 l-102 -77 -168 91 c-92 50 -192
104 -222 121 l-53 29 43 -78 c23 -43 73 -133 110 -201 l67 -122 -121 -84
c-410 -282 -832 -535 -1077 -645 -103 -47 -240 -91 -281 -91 -27 0 -29 2 -29
39 0 81 69 256 185 472 37 68 70 127 74 131 3 4 64 -9 135 -28 70 -19 130 -33
134 -30 6 6 -62 270 -83 322 -12 30 -9 35 164 295 231 347 431 621 644 883
l23 28 259 -155 c143 -85 261 -154 263 -152 2 2 -66 122 -152 266 l-155 263
42 26 c43 27 124 61 187 79 19 6 85 9 145 7 85 -3 125 -9 176 -28z"/>
</g>
</svg>
