
<svg version="1.0" xmlns="http://www.w3.org/2000/svg"
 width="512.000000pt" height="512.000000pt" viewBox="0 0 512.000000 512.000000"
 preserveAspectRatio="xMidYMid meet">

<g transform="translate(0.000000,512.000000) scale(0.100000,-0.100000)"
fill="#FFFFF" stroke="none">
<path d="M980 4702 c-47 -38 -15 -112 49 -112 14 0 204 -18 421 -39 375 -36
399 -40 453 -67 66 -31 121 -87 147 -148 16 -36 80 -439 80 -504 l0 -22 -282
0 c-266 0 -285 -1 -316 -20 -73 -45 -82 83 118 -1627 208 -1781 195 -1677 216
-1707 37 -58 8 -56 906 -56 921 0 875 -3 909 70 12 25 71 497 203 1615 103
869 186 1593 186 1608 0 38 -26 80 -60 101 -25 14 -110 16 -888 16 l-860 0 -7
58 c-3 31 -20 149 -36 261 -31 223 -53 289 -120 366 -44 50 -139 111 -203 131
-35 10 -826 94 -890 94 -2 0 -14 -8 -26 -18z m1175 -1034 c2 -13 14 -93 25
-178 11 -85 22 -169 25 -186 l5 -31 -142 -6 c-145 -6 -252 -26 -357 -66 l-51
-19 -5 21 c-5 26 -55 451 -55 473 0 12 43 14 275 14 l275 0 5 -22z m1785 -5
c0 -16 -7 -92 -17 -171 l-16 -143 -75 -70 c-89 -83 -208 -158 -315 -200 l-79
-30 -108 105 c-114 112 -140 125 -218 113 -29 -5 -56 -26 -138 -108 l-103
-103 -43 13 c-24 7 -110 41 -193 76 -82 35 -179 71 -215 81 -36 9 -68 20 -73
24 -5 4 -67 408 -67 437 0 2 374 3 830 3 l830 0 0 -27z m-721 -577 l63 -63
-51 -7 c-55 -7 -211 3 -211 14 0 10 117 120 127 120 5 0 37 -29 72 -64z m511
-1228 c-83 -705 -153 -1293 -156 -1306 l-4 -22 -800 0 -799 0 -6 43 c-3 23
-71 589 -149 1257 -103 871 -140 1217 -132 1222 27 19 129 52 211 69 96 20
335 27 335 10 0 -6 20 -157 45 -337 25 -179 45 -328 45 -330 0 -2 -16 -4 -36
-4 -47 0 -99 -25 -124 -60 -21 -29 -110 -370 -110 -420 0 -39 22 -82 55 -108
13 -11 84 -34 157 -52 73 -18 138 -38 144 -44 6 -6 44 -252 83 -546 45 -333
78 -543 87 -557 22 -35 93 -27 108 12 3 9 -26 245 -64 525 -39 279 -70 517
-70 528 0 12 11 24 30 32 59 25 74 56 125 262 55 220 55 250 2 303 -26 26 -52
37 -143 59 l-110 27 -47 341 c-26 188 -45 343 -44 345 8 7 119 -32 220 -78 59
-26 125 -54 147 -60 l41 -12 -7 -43 c-10 -70 18 -114 168 -260 206 -203 222
-202 430 4 149 147 173 182 166 246 l-5 41 116 56 c64 31 143 77 176 101 33
25 61 44 63 42 2 -1 -64 -580 -148 -1286z m-570 1037 c69 0 151 4 183 8 51 8
57 7 57 -10 0 -18 -237 -263 -255 -263 -18 0 -255 244 -255 264 0 17 5 18 73
10 39 -5 128 -9 197 -9z m-832 -573 c13 -9 70 -387 60 -398 -5 -5 -41 3 -170
37 -47 12 -47 14 -7 172 53 213 47 197 77 197 15 0 33 -4 40 -8z m255 -62 c46
-13 46 -15 6 -173 -48 -193 -50 -200 -58 -191 -4 5 -13 52 -20 104 -7 52 -18
137 -25 189 l-13 93 36 -6 c20 -3 53 -11 74 -16z"/>
<path d="M3003 1671 c-23 -11 -49 -31 -58 -45 -23 -34 -104 -359 -105 -415 0
-54 28 -101 72 -124 18 -10 115 -37 215 -62 191 -46 213 -47 269 -10 36 23 49
58 99 256 52 206 52 231 1 286 -30 33 -43 38 -226 84 -107 27 -202 49 -210 49
-8 0 -34 -9 -57 -19z m230 -152 c89 -22 166 -44 171 -49 9 -9 -71 -347 -85
-355 -9 -6 -340 74 -352 85 -6 5 57 287 78 348 6 17 7 17 188 -29z"/>
</g>
</svg>
