
<svg version="1.0" xmlns="http://www.w3.org/2000/svg"
 width="512.000000pt" height="512.000000pt" viewBox="0 0 512.000000 512.000000"
 preserveAspectRatio="xMidYMid meet">

<g transform="translate(0.000000,512.000000) scale(0.100000,-0.100000)"
fill="#FFFFF" stroke="none">
<path d="M1235 4951 c-63 -16 -133 -69 -147 -112 -3 -8 -12 -7 -33 3 -112 57
-245 15 -299 -94 -14 -29 -26 -68 -26 -89 l0 -37 -54 -4 c-104 -9 -181 -90
-193 -202 -5 -47 -2 -64 21 -111 33 -67 64 -91 181 -143 50 -22 115 -51 146
-65 l56 -25 -14 -69 c-26 -121 2 -259 74 -371 l35 -56 -28 19 c-16 10 -51 33
-79 52 -59 40 -97 42 -130 8 l-25 -24 0 -1151 0 -1151 25 -24 c32 -33 78 -33
110 0 l25 24 0 1061 0 1060 187 -125 c115 -76 198 -125 213 -125 15 0 112 58
252 152 l228 151 228 -151 c139 -93 237 -152 252 -152 15 0 113 59 252 152
l228 151 228 -151 c140 -94 237 -152 252 -152 15 0 98 49 213 125 l187 125 0
-1460 0 -1461 25 -24 c32 -33 78 -33 110 0 l25 24 0 1438 0 1438 80 -80 80
-80 0 -478 0 -478 25 -24 c32 -33 78 -33 110 0 l25 24 0 478 0 478 80 80 80
80 0 -358 0 -358 25 -24 c32 -33 78 -33 110 0 l25 24 0 471 0 471 -25 24 c-32
32 -75 32 -113 0 l-29 -25 -7 40 c-3 22 -18 76 -32 120 l-25 81 28 33 c123
140 135 332 28 472 l-25 32 58 6 c31 4 91 2 132 -3 107 -15 118 -14 143 12 17
16 28 48 42 126 18 99 18 107 2 168 -40 151 -159 243 -318 243 -226 0 -463
-103 -635 -274 l-91 -92 -49 33 c-27 19 -74 43 -104 54 -105 40 -287 11 -320
-50 -16 -30 -12 -65 10 -89 29 -30 59 -36 102 -17 49 20 131 19 171 -1 18 -10
70 -43 117 -74 47 -31 104 -67 127 -78 43 -22 137 -41 176 -36 12 2 58 8 103
14 98 14 148 4 201 -43 65 -57 88 -139 59 -218 -11 -32 -242 -327 -257 -328
-3 -1 -32 63 -63 142 -58 145 -80 177 -121 177 -41 0 -52 -10 -152 -137 -53
-68 -99 -121 -100 -116 -2 4 -20 91 -42 193 -43 200 -53 220 -113 220 -25 0
-47 -16 -119 -87 -49 -47 -90 -85 -92 -82 -18 22 -30 85 -31 166 -1 87 -5 105
-33 165 -37 79 -96 146 -157 178 -43 23 -44 24 -49 86 -11 115 -78 213 -182
264 -72 35 -198 35 -270 0 -65 -32 -126 -93 -154 -156 l-23 -50 -68 -11 c-130
-20 -235 -96 -290 -207 -35 -70 -31 -101 14 -131 42 -28 82 -12 117 46 65 105
144 146 258 134 89 -9 111 7 122 90 13 100 67 150 159 150 63 0 95 -16 134
-69 21 -27 23 -58 15 -168 -4 -47 18 -72 79 -89 91 -25 172 -133 172 -229 0
-83 -25 -121 -151 -233 -27 -25 -30 -32 -25 -65 17 -107 18 -125 7 -165 -7
-24 -28 -62 -46 -86 -19 -23 -35 -46 -37 -50 -2 -4 -68 -51 -148 -105 l-145
-96 -11 68 c-7 37 -13 89 -15 116 l-4 48 110 50 c120 54 145 75 145 120 0 36
-40 78 -73 78 -14 0 -59 -16 -102 -35 l-78 -36 7 66 c11 108 4 102 201 185 99
42 183 84 191 95 33 47 -4 125 -60 125 -13 0 -71 -20 -128 -44 -56 -25 -105
-40 -106 -35 -2 5 12 38 32 73 20 35 36 76 36 91 0 35 -41 75 -78 75 -42 0
-66 -24 -108 -110 l-37 -75 -18 42 c-19 45 -43 63 -84 63 -32 0 -75 -41 -75
-73 0 -12 22 -75 50 -139 49 -115 50 -116 39 -172 l-12 -55 -25 19 c-34 27
-83 26 -110 -3 -37 -39 -28 -72 48 -182 59 -85 70 -107 75 -155 3 -30 11 -88
16 -128 10 -73 7 -95 -10 -76 -5 5 -73 152 -151 328 -77 175 -155 346 -171
379 -57 112 -172 211 -293 252 l-58 20 6 45 c22 177 28 297 17 338 -29 105
-160 180 -266 153z m95 -171 c24 -24 24 -27 5 -200 -8 -74 -15 -141 -15 -147
0 -32 -24 -8 -50 51 -26 57 -50 179 -50 259 0 25 36 57 65 57 14 0 34 -9 45
-20z m2997 9 c70 -26 110 -97 98 -175 l-6 -45 -57 7 c-65 7 -211 -8 -292 -31
-101 -29 -390 -56 -390 -38 0 15 106 119 154 153 49 33 135 77 190 97 103 37
249 53 303 32z m-3338 -96 c18 -16 151 -296 151 -319 0 -13 -39 -36 -49 -29
-5 3 -52 65 -105 139 -104 146 -116 181 -74 210 29 21 51 20 77 -1z m-179
-288 c49 -36 92 -77 118 -115 23 -32 42 -61 42 -65 0 -13 -35 -1 -161 56 -167
76 -192 101 -153 157 26 38 67 29 154 -33z m690 -166 l34 -15 -59 -34 c-32
-18 -67 -42 -77 -52 -42 -42 -6 -128 55 -128 17 0 67 21 120 51 84 49 90 51
101 33 15 -26 215 -467 215 -477 1 -4 -23 8 -51 28 -29 19 -64 35 -78 35 -15
0 -104 -53 -234 -140 -115 -76 -213 -137 -218 -134 -4 3 -21 25 -38 49 l-30
44 72 42 c40 23 91 53 114 65 39 23 64 58 64 90 0 23 -55 74 -80 74 -11 0 -67
-26 -123 -59 -56 -32 -112 -63 -124 -69 -19 -11 -25 -7 -59 41 -58 79 -83 150
-84 229 0 150 83 272 225 331 50 21 203 18 255 -4z m1775 -444 c38 -188 50
-219 90 -237 43 -19 74 6 185 147 57 74 105 133 107 131 5 -5 63 -149 63 -157
0 -5 -14 -6 -30 -2 -27 5 -57 -12 -260 -147 l-230 -153 -190 126 -189 126 27
58 c21 47 27 75 28 146 2 80 4 89 27 107 14 11 27 20 30 20 3 0 13 -20 23 -46
20 -52 46 -74 87 -74 23 0 46 16 106 75 42 40 79 71 82 67 4 -4 23 -88 44
-187z m794 -159 c6 -33 11 -83 11 -111 0 -46 -4 -54 -40 -90 l-40 -39 -65 64
c-57 57 -62 65 -47 76 9 6 48 50 87 98 44 53 72 81 76 73 4 -7 12 -39 18 -71z"/>
<path d="M2805 3031 c-31 -8 -83 -33 -124 -59 -16 -11 -51 -16 -120 -16 -86
-1 -103 -4 -163 -33 -80 -37 -146 -96 -179 -158 -23 -44 -25 -45 -72 -45 -92
0 -221 -59 -279 -128 -18 -22 -37 -31 -74 -36 -60 -9 -157 -59 -190 -99 -76
-90 -101 -209 -66 -311 19 -55 19 -61 4 -95 -11 -24 -16 -66 -16 -131 -1 -83
3 -102 27 -155 15 -32 38 -73 51 -90 18 -23 21 -36 15 -48 -5 -9 -12 -46 -16
-81 -10 -114 44 -227 138 -289 29 -19 49 -39 49 -51 0 -10 -7 -74 -17 -143
-16 -122 -16 -124 4 -151 28 -38 84 -42 116 -10 20 20 26 44 42 161 l17 137
42 11 c22 6 57 19 76 29 36 18 120 95 120 110 0 4 35 10 77 13 61 5 92 13 151
42 63 32 85 37 151 39 124 4 213 59 271 168 29 54 34 74 36 140 2 65 7 87 37
148 23 45 39 93 43 130 l7 60 51 23 c71 33 109 68 142 131 24 46 26 58 17 79
-32 70 -105 72 -150 5 -40 -58 -71 -78 -138 -87 -83 -11 -99 -33 -90 -123 8
-78 -4 -126 -44 -178 -50 -63 -54 -76 -40 -129 17 -68 5 -117 -40 -162 -45
-45 -94 -57 -162 -40 -53 14 -66 10 -129 -40 -53 -41 -99 -52 -185 -44 -87 8
-95 5 -131 -67 -22 -44 -68 -87 -79 -76 -6 5 36 158 62 226 11 30 21 42 35 42
11 0 77 8 146 17 105 14 130 21 149 39 31 31 30 78 -3 111 -27 27 -48 27 -188
6 -36 -6 -39 -4 -32 13 4 10 28 52 54 91 l47 73 168 0 c165 0 168 0 192 25 16
15 25 36 25 55 0 19 -9 40 -25 55 -22 23 -31 25 -122 25 l-97 0 44 46 c25 25
62 59 82 75 l37 30 70 -36 c39 -19 80 -35 92 -35 26 0 79 52 79 77 -1 31 -26
65 -61 83 l-33 17 77 43 c43 23 82 50 87 60 27 51 -11 120 -67 120 -16 0 -59
-18 -96 -39 l-67 -40 0 55 c0 66 -29 104 -80 104 -19 0 -40 -9 -55 -25 -24
-23 -25 -31 -25 -133 l0 -110 -37 -28 c-21 -16 -70 -59 -109 -96 l-71 -67 -17
54 c-26 85 -90 112 -141 60 -32 -31 -31 -49 6 -165 l32 -96 -48 -69 c-26 -39
-50 -71 -54 -73 -4 -1 -16 48 -26 110 -21 127 -40 158 -95 158 -37 0 -80 -39
-80 -72 0 -13 18 -119 40 -236 l39 -213 -25 -66 c-14 -36 -35 -104 -47 -152
-12 -47 -27 -88 -32 -90 -17 -7 -47 46 -52 92 -4 37 0 56 21 96 14 28 26 60
26 70 0 11 -24 47 -54 80 -81 92 -97 185 -47 281 27 53 27 70 -5 131 -43 81
-25 158 49 213 20 15 47 21 97 24 l69 4 47 54 c69 82 108 98 227 99 111 0 117
4 139 80 8 25 32 59 63 91 59 59 118 81 193 70 130 -20 117 -22 173 28 81 73
160 75 229 6 60 -60 66 -133 15 -208 -32 -47 -32 -86 0 -117 42 -43 95 -28
139 38 134 206 0 478 -242 492 -37 2 -80 1 -97 -4z"/>
<path d="M4265 2455 l-25 -24 0 -1031 0 -1030 -80 40 -80 40 0 711 0 710 -25
24 c-15 16 -36 25 -55 25 -19 0 -40 -9 -55 -25 l-25 -24 0 -710 0 -711 -130
-65 -130 -65 -1390 0 -1390 0 0 375 0 376 -25 24 c-15 16 -36 25 -55 25 -19 0
-40 -9 -55 -25 l-25 -24 0 -431 0 -431 25 -24 24 -25 1466 0 1465 0 150 75
150 75 150 -75 c82 -41 161 -75 175 -75 14 0 37 11 50 25 l25 24 0 1111 0
1111 -25 24 c-15 16 -36 25 -55 25 -19 0 -40 -9 -55 -25z"/>
<path d="M2345 1095 c-16 -15 -25 -36 -25 -55 0 -19 9 -40 25 -55 l24 -25 271
0 271 0 24 25 c16 15 25 36 25 55 0 19 -9 40 -25 55 l-24 25 -271 0 -271 0
-24 -25z"/>
<path d="M1145 1015 c-25 -24 -25 -26 -25 -215 0 -257 -17 -240 240 -240 257
0 240 -17 240 240 0 257 17 240 -240 240 -189 0 -191 0 -215 -25z m295 -215
l0 -80 -80 0 -80 0 0 80 0 80 80 0 80 0 0 -80z"/>
<path d="M1785 695 c-16 -15 -25 -36 -25 -55 0 -19 9 -40 25 -55 l24 -25 311
0 311 0 24 25 c16 15 25 36 25 55 0 19 -9 40 -25 55 l-24 25 -311 0 -311 0
-24 -25z"/>
<path d="M2665 695 c-16 -15 -25 -36 -25 -55 0 -19 9 -40 25 -55 23 -24 28
-25 175 -25 147 0 152 1 175 25 16 15 25 36 25 55 0 19 -9 40 -25 55 -23 24
-28 25 -175 25 -147 0 -152 -1 -175 -25z"/>
</g>
</svg>
