
<svg version="1.0" xmlns="http://www.w3.org/2000/svg"
 width="512.000000pt" height="512.000000pt" viewBox="0 0 512.000000 512.000000"
 preserveAspectRatio="xMidYMid meet">

<g transform="translate(0.000000,512.000000) scale(0.100000,-0.100000)"
fill="#FFFFF" stroke="none">
<path d="M1842 5107 c-46 -14 -115 -78 -136 -125 -17 -37 -21 -40 -43 -31
-125 47 -303 -81 -303 -219 0 -19 -4 -21 -50 -15 -78 9 -136 -12 -195 -71 -64
-64 -75 -101 -75 -246 0 -145 11 -182 75 -246 59 -59 117 -80 195 -71 l50 6 0
-324 0 -325 -216 0 c-257 0 -279 -5 -349 -75 -63 -62 -75 -101 -75 -238 l0
-105 -92 -45 c-261 -127 -454 -366 -523 -648 -49 -199 -17 -664 70 -1010 125
-495 348 -915 590 -1113 l57 -46 -147 0 c-142 0 -147 -1 -170 -25 -33 -32 -33
-78 0 -110 l24 -25 1231 0 1231 0 24 25 c33 32 33 78 0 110 -23 24 -29 25
-165 25 l-140 0 97 97 c314 314 528 830 614 1483 20 150 18 500 -4 584 -74
291 -262 525 -524 653 l-93 45 0 105 c0 130 -12 172 -67 233 -66 74 -94 80
-355 80 l-218 0 0 205 0 204 50 -6 c29 -3 69 0 95 7 56 16 125 75 149 128 17
37 21 40 43 31 33 -12 88 -11 137 3 78 23 166 135 166 212 0 14 91 16 1069 18
1063 3 1070 3 1097 24 64 47 69 63 69 213 0 136 0 138 -29 175 -53 70 16 66
-1151 66 -970 0 -1055 1 -1055 16 0 77 -88 189 -166 212 -49 14 -104 15 -137
3 -22 -9 -26 -6 -43 31 -58 130 -229 177 -346 96 -28 -19 -28 -19 -55 0 -59
41 -140 52 -211 29z m133 -172 l25 -24 0 -231 0 -231 25 -24 c15 -16 36 -25
55 -25 19 0 40 9 55 25 l25 24 0 231 0 231 25 24 c15 16 36 25 55 25 19 0 40
-9 55 -25 l25 -24 0 -431 0 -431 -25 -24 c-32 -33 -78 -33 -110 0 -22 21 -25
33 -25 95 0 62 -3 74 -25 95 -15 16 -36 25 -55 25 -19 0 -40 -9 -55 -25 -25
-24 -25 -24 -25 -240 l0 -215 -240 0 -240 0 0 335 0 336 25 24 c15 16 36 25
55 25 19 0 40 -9 55 -25 24 -23 25 -28 25 -175 0 -147 1 -152 25 -175 15 -16
36 -25 55 -25 19 0 40 9 55 25 l25 24 0 391 0 391 25 24 c15 16 36 25 55 25
19 0 40 -9 55 -25z m-320 -160 c21 -20 25 -34 25 -82 l0 -58 -80 0 -80 0 0 58
c0 48 4 62 25 82 15 16 36 25 55 25 19 0 40 -9 55 -25z m960 0 l25 -24 0 -271
0 -271 -25 -24 c-15 -16 -36 -25 -55 -25 -19 0 -40 9 -55 25 l-25 24 0 271 0
271 25 24 c15 16 36 25 55 25 19 0 40 -9 55 -25z m-1280 -240 c24 -23 25 -31
25 -135 0 -104 -1 -112 -25 -135 -15 -16 -36 -25 -55 -25 -19 0 -40 9 -55 25
-24 23 -25 31 -25 135 0 104 1 112 25 135 15 16 36 25 55 25 19 0 40 -9 55
-25z m3225 -55 l0 -80 -880 0 -880 0 0 80 0 80 880 0 880 0 0 -80z m320 0 l0
-80 -80 0 -80 0 0 80 0 80 80 0 80 0 0 -80z m-2880 -960 l0 -80 -240 0 -240 0
0 80 0 80 240 0 240 0 0 -80z m615 -265 c23 -22 25 -32 25 -120 l0 -95 -880 0
-880 0 0 95 c0 88 2 98 25 120 l24 25 831 0 831 0 24 -25z m-1255 -529 l0
-154 -37 -13 c-21 -6 -54 -20 -74 -30 l-37 -18 -85 35 c-212 86 -467 114 -656
73 -24 -5 -46 -8 -48 -5 -8 8 68 85 131 132 61 46 150 95 216 120 25 9 112 13
313 13 l277 1 0 -154z m640 13 c0 -110 -3 -140 -13 -136 -70 27 -271 39 -399
24 l-68 -8 0 131 0 130 240 0 240 0 0 -141z m831 88 c52 -26 112 -62 133 -80
l39 -34 -69 -17 c-156 -39 -300 -113 -437 -223 l-81 -66 -125 66 -126 65 -3
171 -2 172 289 -3 289 -3 93 -48z m351 -343 c109 -208 125 -467 53 -890 -119
-702 -418 -1239 -773 -1388 -77 -33 -95 -33 -117 1 -107 162 -341 272 -586
273 -237 1 -484 -113 -580 -267 -25 -39 -41 -41 -118 -9 -323 131 -604 593
-745 1226 -84 379 -98 692 -39 903 19 67 38 81 170 119 66 19 100 23 223 22
123 -1 160 -5 242 -27 117 -32 252 -89 362 -153 120 -70 133 -76 158 -69 40
13 58 36 58 76 0 41 -11 55 -67 90 l-37 23 72 23 c112 35 245 48 355 34 137
-18 212 -44 406 -141 191 -95 265 -124 369 -142 84 -14 135 -5 162 29 26 33
25 63 -1 97 -18 23 -28 26 -81 26 -76 0 -73 10 18 72 121 83 310 149 409 145
l50 -2 37 -71z m-1279 -2179 c81 -17 182 -65 234 -111 l38 -33 -420 0 -420 0
35 29 c128 107 347 155 533 115z"/>
<path d="M1114 1986 c-78 -52 -144 -102 -148 -111 -10 -26 -7 -454 3 -474 6
-10 60 -50 120 -91 l111 -73 0 -189 c0 -104 4 -197 9 -207 15 -27 283 -201
311 -201 28 0 296 174 311 201 5 10 9 103 9 207 l0 189 80 53 80 53 108 -72
c59 -39 119 -71 132 -71 28 0 296 174 311 201 12 23 12 455 0 478 -15 27 -283
201 -311 201 -13 0 -73 -32 -132 -71 l-108 -72 -108 72 c-59 39 -119 71 -132
71 -13 0 -73 -32 -132 -71 l-108 -72 -108 72 c-60 40 -119 71 -132 71 -15 0
-83 -39 -166 -94z m248 -137 l78 -52 0 -157 0 -157 -80 -53 -80 -53 -80 53
-80 53 0 157 0 157 78 52 c42 28 79 51 81 51 3 0 40 -23 83 -51z m480 0 l78
-52 0 -157 0 -157 -80 -53 -80 -53 -80 53 -80 53 0 157 0 157 78 52 c42 28 79
51 81 51 3 0 40 -23 83 -51z m480 0 l78 -52 0 -157 0 -157 -80 -53 -80 -53
-80 53 -80 53 0 157 0 157 78 52 c42 28 79 51 81 51 3 0 40 -23 83 -51z m-720
-560 l78 -52 0 -157 0 -157 -80 -53 -80 -53 -80 53 -80 53 0 157 0 157 78 52
c42 28 79 51 81 51 3 0 40 -23 83 -51z"/>
</g>
</svg>
