
<svg version="1.0" xmlns="http://www.w3.org/2000/svg"
 width="512.000000pt" height="512.000000pt" viewBox="0 0 512.000000 512.000000"
 preserveAspectRatio="xMidYMid meet">

<g transform="translate(0.000000,512.000000) scale(0.100000,-0.100000)"
fill="#FFFFF" stroke="none">
<path d="M4415 4614 c-60 -42 -164 -102 -230 -134 -235 -114 -411 -167 -1005
-305 -662 -153 -900 -229 -1223 -392 -249 -126 -452 -270 -646 -457 -406 -394
-608 -822 -637 -1349 -11 -203 25 -495 85 -686 l20 -63 -73 -122 c-153 -255
-276 -512 -276 -579 0 -51 47 -97 101 -97 55 0 90 37 134 140 46 108 139 286
217 416 l60 100 149 -38 c317 -81 564 -111 899 -111 168 0 272 4 365 17 798
107 1333 467 1775 1191 365 599 560 1301 560 2019 0 209 -13 398 -31 453 -14
44 -53 73 -98 73 -28 0 -59 -16 -146 -76z m62 -514 c-7 -266 -25 -433 -72
-666 -114 -563 -337 -1056 -676 -1494 -338 -437 -774 -682 -1374 -772 -122
-18 -613 -18 -755 1 -174 22 -512 90 -528 106 -4 4 195 266 245 324 l39 44
169 -26 c244 -38 380 -49 547 -45 130 3 150 5 175 24 55 41 56 126 2 167 -24
17 -46 20 -220 22 -174 2 -396 23 -476 44 -27 7 -25 9 82 115 61 60 160 153
220 206 l110 97 95 -24 c237 -60 532 -89 800 -80 96 4 192 11 212 17 79 23
104 111 49 172 -25 28 -35 32 -72 31 -409 -10 -571 -3 -772 33 -68 13 -85 19
-77 29 19 23 244 172 470 310 124 76 246 152 272 170 l47 31 103 -13 c128 -15
381 -21 471 -10 87 11 125 41 134 104 5 39 2 46 -29 77 l-34 34 -185 -5 c-114
-3 -180 -2 -174 4 6 5 69 52 140 103 145 105 353 268 373 293 8 9 16 34 19 56
5 36 2 44 -30 76 -28 28 -43 35 -74 35 -35 0 -56 -13 -189 -117 -140 -111
-388 -293 -398 -293 -7 0 28 100 48 138 43 83 0 172 -84 172 -34 0 -48 -6 -74
-32 -50 -51 -118 -250 -133 -390 l-6 -58 -101 -64 c-56 -35 -180 -112 -276
-171 -96 -59 -230 -145 -298 -191 -109 -75 -122 -82 -122 -62 0 40 56 297 95
441 33 121 36 141 25 168 -28 66 -95 87 -157 49 -27 -16 -36 -32 -57 -102 -64
-209 -120 -495 -132 -664 l-7 -95 -71 -62 c-39 -34 -135 -122 -213 -195 l-143
-134 0 39 c0 56 27 198 55 292 13 45 22 89 19 99 -14 43 -29 62 -62 78 -29 13
-41 14 -73 5 -47 -14 -70 -50 -97 -151 -44 -160 -55 -241 -56 -425 l-2 -180
-85 -105 c-47 -58 -105 -132 -130 -164 l-44 -59 -18 89 c-24 119 -34 438 -17
571 45 366 207 689 495 991 295 309 652 524 1124 676 186 60 317 94 656 171
684 156 961 244 1207 385 l83 48 9 -32 c5 -17 6 -132 3 -256z"/>
</g>
</svg>
