
<svg version="1.0" xmlns="http://www.w3.org/2000/svg"
 width="512.000000pt" height="512.000000pt" viewBox="0 0 512.000000 512.000000"
 preserveAspectRatio="xMidYMid meet">

<g transform="translate(0.000000,512.000000) scale(0.100000,-0.100000)"
fill="#FFFFF" stroke="none">
<path d="M2055 4769 c-613 -60 -1156 -321 -1580 -760 -193 -200 -301 -368
-340 -529 -36 -152 -29 -335 17 -442 24 -57 101 -131 166 -161 44 -21 62 -22
277 -22 257 0 269 3 346 72 64 58 78 96 108 302 31 207 29 208 61 -24 24 -168
41 -215 95 -270 75 -75 99 -80 366 -80 l236 0 7 -495 c5 -366 4 -509 -5 -550
-22 -103 -63 -165 -184 -285 -165 -160 -205 -253 -205 -470 0 -137 19 -227 68
-330 70 -145 180 -253 325 -320 139 -64 169 -67 783 -62 417 3 559 7 592 17
38 11 53 11 112 -4 54 -13 122 -16 338 -16 160 0 293 5 324 11 164 34 289 167
319 338 20 111 -15 205 -112 306 -83 86 -89 106 -89 280 l0 145 103 0 c56 0
120 5 142 11 48 14 103 67 111 108 8 40 20 40 28 0 8 -43 64 -95 116 -109 27
-7 91 -11 161 -8 112 3 119 4 161 33 23 17 54 51 68 75 22 40 25 56 24 145 -2
168 -48 259 -219 430 -195 196 -431 323 -705 382 -73 15 -134 18 -422 18
l-338 0 0 172 0 171 238 4 c267 3 292 9 367 83 54 55 71 102 95 270 32 232 30
231 61 24 30 -206 44 -244 108 -302 77 -69 89 -72 346 -72 216 0 233 2 278 22
65 31 141 104 166 162 29 68 44 182 38 283 -17 259 -136 470 -423 748 -396
382 -864 609 -1429 691 -99 14 -972 21 -1100 8z m1125 -113 c553 -89 1024
-331 1392 -715 256 -267 333 -420 332 -666 0 -67 -5 -139 -12 -163 -16 -52
-62 -106 -116 -135 -38 -21 -54 -22 -251 -22 -235 0 -250 4 -301 70 -23 31
-30 58 -55 228 -16 105 -29 195 -29 199 0 3 -12 20 -26 37 -22 26 -33 31 -69
31 -31 0 -52 -7 -70 -23 -25 -21 -29 -36 -56 -220 -16 -109 -35 -210 -43 -225
-22 -42 -67 -79 -111 -91 -54 -15 -1375 -15 -1428 0 -48 13 -103 61 -116 102
-6 18 -19 88 -31 157 -27 169 -27 168 -57 196 -37 34 -93 33 -133 -3 -29 -26
-32 -38 -56 -178 -29 -176 -36 -195 -80 -235 -49 -43 -90 -50 -289 -50 -197 0
-245 8 -288 48 -47 44 -56 72 -86 279 -27 184 -31 199 -56 220 -18 16 -39 23
-70 23 -36 0 -47 -5 -69 -31 -14 -17 -26 -34 -26 -37 0 -4 -13 -94 -29 -199
-25 -170 -32 -197 -55 -228 -51 -66 -66 -70 -301 -70 -197 0 -213 1 -251 22
-54 29 -100 83 -116 135 -19 65 -16 270 5 348 42 160 168 342 368 535 356 343
774 558 1252 645 190 34 276 38 757 36 379 -3 484 -6 570 -20z m-1086 -1469
c29 -165 46 -206 106 -261 81 -73 64 -71 563 -74 l447 -3 0 -183 0 -183 -57
-12 c-214 -47 -463 -190 -638 -366 -172 -171 -218 -263 -219 -430 0 -88 2
-105 24 -145 14 -24 45 -58 68 -75 42 -29 49 -30 161 -33 68 -3 134 1 159 8
55 14 99 54 116 105 l14 39 16 -39 c38 -90 75 -108 236 -115 l125 -5 3 -144
c3 -171 -8 -204 -94 -277 -61 -52 -109 -139 -119 -215 -13 -90 32 -228 97
-296 l30 -31 -43 -7 c-24 -3 -282 -5 -574 -3 -608 4 -595 2 -739 98 -171 115
-256 287 -256 514 1 194 30 258 189 416 129 127 161 178 192 297 19 75 20 96
13 604 l-7 527 35 34 c52 52 69 98 96 260 14 81 27 147 28 145 1 -1 14 -69 28
-150z m2008 -810 c199 -53 357 -133 512 -258 90 -72 207 -202 239 -264 64
-126 62 -274 -6 -316 -28 -17 -46 -19 -144 -17 -86 2 -116 7 -128 19 -10 10
-23 61 -35 135 -21 130 -35 154 -90 154 -55 0 -69 -24 -90 -154 -12 -74 -25
-125 -35 -135 -14 -14 -65 -16 -404 -19 l-389 -3 -26 23 c-20 19 -28 40 -40
113 -13 74 -20 94 -41 113 -62 53 -117 13 -135 -99 -23 -149 -26 -151 -192
-147 -94 2 -121 6 -134 20 -11 11 -23 57 -35 135 -19 129 -34 153 -89 153 -56
0 -71 -25 -90 -154 -12 -76 -24 -124 -34 -135 -13 -12 -42 -17 -129 -19 -98
-2 -116 0 -144 17 -41 26 -57 82 -49 169 11 120 93 247 245 380 139 120 283
203 457 261 165 55 215 60 579 57 320 -2 333 -3 427 -29z m-641 -932 c31 -18
55 -20 276 -23 l242 -3 3 -167 c4 -197 13 -225 104 -313 76 -74 98 -118 98
-200 0 -115 -71 -221 -183 -273 -44 -20 -61 -21 -351 -21 -349 0 -367 3 -451
82 -62 58 -92 128 -93 213 0 82 15 110 102 197 102 101 114 140 111 353 l-3
165 27 40 c15 22 27 46 27 55 0 8 13 -7 29 -35 16 -27 44 -59 62 -70z"/>
<path d="M1755 4489 c-54 -17 -105 -35 -112 -41 -21 -17 -15 -56 10 -72 20
-13 33 -12 132 16 61 17 116 35 123 40 29 24 2 89 -36 87 -9 0 -62 -14 -117
-30z"/>
<path d="M1321 4315 c-225 -118 -449 -289 -619 -471 -79 -85 -92 -103 -90
-129 2 -22 10 -32 30 -39 26 -9 34 -3 150 116 186 190 369 328 584 438 53 27
103 55 110 61 17 14 18 51 2 67 -22 22 -63 12 -167 -43z"/>
</g>
</svg>
