<svg version="1.0" xmlns="http://www.w3.org/2000/svg"
 width="512.000000pt" height="512.000000pt" viewBox="0 0 512.000000 512.000000"
 preserveAspectRatio="xMidYMid meet">

<g transform="translate(0.000000,512.000000) scale(0.100000,-0.100000)"
fill="#FFFFF" stroke="none">
<path d="M3893 4878 c-43 -34 -186 -170 -319 -303 -308 -307 -405 -376 -662
-462 -91 -31 -120 -36 -192 -36 -110 1 -238 30 -482 108 -304 99 -482 127
-803 128 -460 1 -804 -96 -990 -278 -90 -88 -110 -136 -110 -260 0 -90 3 -105
28 -153 15 -29 48 -72 72 -95 91 -87 278 -179 437 -214 112 -24 364 -24 498 1
218 40 531 170 710 296 255 178 452 289 585 328 81 25 315 90 315 88 0 0 -91
-93 -203 -206 -359 -364 -630 -698 -736 -908 -21 -41 -21 -45 -6 -68 25 -39
60 -32 92 19 138 218 263 386 431 577 117 133 370 398 403 421 l29 21 -31 -53
c-174 -296 -302 -654 -365 -1027 -13 -80 -25 -146 -27 -147 -1 -1 -51 -13
-110 -27 -59 -15 -145 -45 -191 -67 l-83 -40 -74 73 c-57 56 -96 83 -169 119
-136 67 -227 88 -380 89 -140 0 -234 -16 -368 -64 -506 -178 -862 -631 -921
-1170 -38 -343 28 -696 170 -913 116 -179 261 -285 494 -363 132 -44 223 -56
383 -49 213 9 355 55 536 176 54 36 104 70 111 75 8 6 37 -12 90 -57 134 -112
311 -200 471 -233 111 -23 322 -15 419 16 198 63 417 226 532 396 135 199 200
415 210 704 18 522 -175 965 -519 1187 -117 75 -308 142 -408 143 -88 1 -89 3
-64 151 99 584 378 1135 768 1519 36 35 66 62 66 60 0 -3 -7 -41 -17 -85 -11
-54 -17 -141 -19 -270 -2 -187 -3 -191 -32 -256 -81 -180 -112 -323 -112 -520
0 -239 56 -451 185 -704 142 -280 358 -561 574 -749 186 -162 260 -200 386
-199 140 1 263 80 327 211 32 64 33 71 32 182 -1 132 -13 219 -55 378 -50 191
-145 399 -270 592 -171 264 -547 682 -729 811 -71 50 -161 99 -183 99 -42 0
-33 318 13 488 44 160 113 256 303 419 104 90 118 117 75 147 -12 9 -26 16
-30 16 -4 0 -42 -28 -85 -62z m-2198 -678 c165 -16 333 -53 531 -118 l179 -59
-110 -8 c-71 -5 -226 -2 -435 8 -426 20 -577 9 -790 -59 -86 -27 -202 -80
-252 -116 -62 -44 -13 -126 50 -84 52 34 168 84 252 110 192 58 360 68 732 46
194 -11 226 -15 216 -27 -28 -34 -263 -180 -382 -238 -231 -111 -392 -153
-621 -162 -176 -6 -299 9 -449 57 -102 33 -140 64 -171 137 -22 52 -19 138 6
189 73 152 350 282 694 327 66 9 447 6 550 -3z m1963 -459 c118 -60 385 -308
432 -401 85 -169 177 -424 216 -604 28 -126 46 -415 26 -402 -16 10 -209 267
-279 373 -139 207 -253 426 -328 627 -46 125 -124 426 -109 426 2 0 21 -9 42
-19z m-113 -158 c42 -187 153 -470 263 -668 108 -195 286 -455 445 -648 l56
-68 -25 -57 c-40 -92 -130 -212 -158 -212 -6 0 -48 37 -92 83 -288 294 -509
699 -569 1046 -19 107 -19 275 0 383 14 79 52 218 59 218 2 0 12 -35 21 -77z
m-1747 -917 c75 -26 121 -50 180 -93 l32 -24 -68 -34 c-206 -103 -367 -366
-433 -707 -5 -29 -19 -125 -30 -213 -51 -411 -146 -735 -267 -911 -133 -195
-295 -247 -493 -158 -157 71 -292 307 -340 599 -20 118 -17 418 5 528 102 524
481 916 996 1032 46 10 106 14 205 11 119 -3 151 -8 213 -30z m1058 -132 c176
-37 371 -171 497 -342 109 -148 167 -486 123 -714 -55 -286 -249 -543 -505
-673 -108 -54 -206 -77 -331 -77 -116 -1 -197 13 -268 44 -128 57 -297 207
-384 343 -171 264 -202 592 -88 920 42 123 66 162 149 245 90 90 173 148 287
202 68 31 212 74 220 65 1 -1 -1 -84 -3 -183 l-6 -182 -38 5 c-47 7 -69 -9
-69 -49 0 -46 49 -61 177 -56 84 3 107 7 130 24 35 26 40 50 17 75 -18 20 -52
20 -101 2 -15 -6 -16 12 -10 176 4 100 9 186 12 191 7 11 98 3 191 -16z"/>
</g>
</svg>
