<svg version="1.0" xmlns="http://www.w3.org/2000/svg"
 width="512.000000pt" height="512.000000pt" viewBox="0 0 512.000000 512.000000"
 preserveAspectRatio="xMidYMid meet">

<g transform="translate(0.000000,512.000000) scale(0.100000,-0.100000)"
fill="#FFFFF" stroke="none">
<path d="M3937 4945 c-88 -24 -155 -66 -227 -142 -57 -59 -76 -73 -101 -73
-43 0 -146 -37 -201 -71 -85 -54 -169 -161 -197 -249 -8 -27 -22 -41 -58 -60
-65 -35 -136 -108 -170 -177 -25 -52 -28 -68 -28 -158 0 -72 5 -113 18 -147
17 -45 17 -47 -2 -78 l-19 -32 -43 82 c-88 171 -183 262 -309 297 l-57 15 -12
222 c-13 241 -20 268 -74 274 -25 3 -297 -65 -360 -90 -33 -13 -57 -44 -57
-75 0 -23 -1 -23 -25 -7 -42 27 -73 8 -219 -132 -123 -119 -136 -135 -136
-166 0 -19 6 -41 12 -50 7 -9 95 -70 195 -137 l182 -121 -14 -34 c-8 -18 -17
-63 -21 -99 l-7 -66 -71 -21 c-77 -24 -139 -53 -200 -95 l-39 -27 -116 115
c-134 133 -147 141 -190 126 -37 -13 -51 -35 -51 -79 0 -27 18 -51 126 -160
l126 -128 -34 -7 c-89 -20 -181 -92 -225 -178 -13 -27 -30 -47 -36 -44 -115
42 -767 260 -791 264 -89 14 -193 -43 -238 -131 -29 -57 -29 -148 1 -209 35
-72 76 -99 243 -158 l149 -54 -169 -5 c-166 -5 -169 -5 -218 -35 -30 -19 -60
-49 -79 -79 -27 -44 -30 -58 -30 -126 0 -68 3 -82 30 -126 19 -30 49 -60 79
-79 47 -28 56 -30 173 -34 68 -1 123 -5 123 -8 0 -3 57 -404 126 -892 76 -535
133 -907 144 -939 53 -149 181 -266 335 -307 52 -13 211 -15 1238 -15 l1179 0
76 -37 c74 -37 79 -38 182 -37 78 0 120 6 163 21 l59 20 61 -20 c44 -14 91
-20 162 -21 97 -1 104 0 177 36 169 84 320 291 412 568 93 280 87 504 -17 682
-36 62 -108 140 -170 184 -29 21 -54 39 -56 41 -2 1 19 27 46 56 57 60 80 100
99 172 22 80 18 112 -15 146 -29 29 -30 29 -147 29 l-117 0 6 51 c4 28 14 99
23 159 l16 108 123 4 c115 3 124 5 171 33 30 19 60 49 79 79 27 44 30 58 30
126 0 68 -3 82 -30 126 -19 30 -49 60 -79 79 l-49 30 -284 3 c-156 2 -283 7
-283 12 0 4 13 37 29 73 l29 65 58 -29 c106 -54 242 -32 339 53 60 53 105 143
105 211 0 26 4 47 8 47 23 0 94 77 121 132 56 111 39 248 -42 344 l-27 31 28
64 c24 57 27 76 27 179 0 112 -1 117 -36 190 -60 124 -151 208 -265 247 -66
22 -71 26 -78 82 -10 73 -68 181 -132 245 -114 114 -302 164 -457 121z m-175
-302 c28 -25 30 -60 7 -111 -12 -27 -23 -77 -26 -117 -5 -60 -1 -80 21 -136
34 -85 34 -121 0 -148 -54 -42 -111 -14 -150 76 -54 122 -53 273 4 386 39 75
95 95 144 50z m-1389 -290 c4 -58 7 -130 7 -159 0 -53 0 -53 -37 -63 -20 -6
-38 -9 -39 -8 -4 4 -84 285 -84 294 0 8 95 39 131 42 13 1 17 -16 22 -106z
m1782 -268 c41 -40 33 -71 -35 -134 -33 -32 -68 -76 -79 -101 -23 -50 -27
-120 -10 -168 20 -59 -36 -123 -95 -108 -45 11 -70 80 -71 196 0 83 4 102 27
152 36 78 71 122 126 158 57 38 103 40 137 5z m-610 -57 c20 -18 28 -37 35
-83 4 -33 13 -73 19 -88 32 -82 -60 -147 -124 -87 -33 31 -55 107 -55 186 0
59 2 64 28 78 38 21 67 19 97 -6z m-952 -64 c20 -10 37 -21 37 -25 0 -3 -14
-12 -30 -19 -91 -38 -106 -139 -25 -170 33 -12 51 -7 117 31 27 16 53 29 57
29 8 0 101 -192 101 -208 0 -4 -22 -20 -50 -35 -71 -40 -94 -80 -74 -132 7
-18 55 -45 80 -45 9 0 39 14 66 30 l49 30 18 -42 c10 -24 46 -101 80 -172 33
-71 61 -134 61 -141 0 -6 -28 -24 -61 -41 -34 -16 -70 -40 -80 -53 -25 -31
-24 -76 1 -101 l20 -20 -132 0 -133 0 -25 37 c-14 21 -33 50 -43 64 l-18 27
109 66 c79 47 113 74 121 94 23 55 -12 112 -68 112 -21 0 -171 -74 -237 -116
-19 -13 -24 -8 -89 87 -56 81 -66 102 -54 110 8 5 49 30 91 55 85 50 105 81
87 133 -12 34 -57 56 -94 47 -14 -4 -62 -27 -107 -51 -44 -25 -84 -45 -88 -45
-11 0 -57 69 -75 112 -42 102 7 255 105 323 81 56 201 69 283 29z m572 -305
c28 -15 64 -30 82 -33 30 -7 33 -11 48 -78 18 -80 14 -88 -43 -88 -104 0 -196
115 -162 204 5 15 13 26 18 24 4 -2 30 -15 57 -29z m1606 -11 c38 -75 14 -156
-62 -205 -82 -52 -84 -56 -82 -120 1 -32 -2 -72 -8 -90 -13 -42 -70 -90 -115
-99 -43 -8 -107 9 -134 36 -19 19 -19 20 9 80 24 49 39 67 89 101 88 58 139
127 162 221 9 35 19 48 45 63 19 10 42 26 51 36 10 11 19 19 20 19 2 0 13 -19
25 -42z m-1239 -54 c26 -25 64 -52 83 -60 19 -8 35 -18 35 -22 2 -41 100 -495
110 -507 7 -8 29 -20 50 -26 61 -19 73 -5 161 179 44 92 82 168 84 171 3 2 27
-6 54 -18 27 -11 61 -21 75 -21 14 0 26 -4 26 -8 0 -5 -38 -94 -83 -198 l-84
-189 -251 -3 -251 -2 6 52 c4 41 -9 122 -56 351 -34 164 -61 307 -61 317 0 11
9 20 23 23 12 2 24 5 26 6 2 0 26 -20 53 -45z m-1440 -126 c8 -18 101 -158
207 -310 105 -153 191 -280 191 -283 0 -3 -80 -5 -178 -5 l-178 0 -260 89
c-142 49 -269 92 -280 95 -20 6 -18 11 30 59 33 33 59 71 71 102 10 28 20 52
22 54 2 3 16 -7 31 -21 72 -66 100 -72 143 -29 42 42 38 72 -16 130 -25 26
-45 51 -45 54 0 10 86 56 145 76 84 28 98 27 117 -11z m1832 0 c8 -13 3 -33
-24 -89 l-35 -72 -17 69 c-26 111 -25 116 23 112 26 -2 46 -10 53 -20z m-594
-165 c0 0 16 -76 35 -167 31 -147 34 -172 24 -212 -6 -25 -16 -43 -22 -41 -8
2 -69 128 -176 362 l-27 60 83 0 c46 0 83 -1 83 -2z m-1812 -379 c570 -196
1060 -365 1088 -375 53 -20 74 -47 74 -94 0 -33 -34 -65 -69 -65 -15 0 -298
93 -627 206 -329 113 -682 234 -784 269 -273 93 -732 252 -753 260 -25 10 -49
62 -41 88 8 28 44 67 61 67 7 0 480 -160 1051 -356z m1650 -6 c6 -17 10 -33 8
-35 -2 -2 -35 -3 -72 -1 l-69 3 55 32 c30 18 57 33 60 33 3 0 11 -14 18 -32z
m-1802 -277 l229 -80 -613 0 -613 -1 -24 25 c-16 15 -25 36 -25 55 0 19 9 40
25 55 l24 25 384 0 383 0 230 -79z m3409 54 c16 -15 25 -36 25 -55 0 -19 -9
-40 -25 -55 l-24 -25 -969 0 -968 0 -17 34 c-19 41 -65 78 -132 105 l-50 20
1068 0 1068 1 24 -25z m-2724 -484 c37 -37 37 -65 0 -102 l-29 -29 -502 0
-502 0 -29 29 c-16 16 -29 39 -29 51 0 12 13 35 29 51 l29 29 502 0 502 0 29
-29z m2003 19 c-92 -13 -165 -64 -180 -126 l-6 -24 -385 0 -385 0 -29 29 c-16
16 -29 39 -29 51 0 12 13 35 29 51 l29 29 504 -1 c277 -1 480 -5 452 -9z m64
-166 c29 -20 28 -44 -5 -277 -17 -119 -30 -186 -37 -184 -10 3 -64 333 -65
400 -1 32 38 77 66 77 10 0 29 -7 41 -16z m502 -149 c0 -4 -6 -18 -14 -33 -36
-69 -128 -121 -213 -122 -29 0 -53 4 -53 8 0 5 13 27 29 49 30 42 82 79 129
93 31 9 122 13 122 5z m-3247 -108 c70 -53 68 -37 65 -621 -3 -512 -3 -525
-24 -552 -32 -44 -68 -66 -116 -71 -58 -7 -108 15 -144 63 l-29 37 -3 511 c-2
281 0 525 3 543 7 40 49 91 90 109 45 21 117 12 158 -19z m640 0 c70 -53 68
-37 65 -621 -3 -512 -3 -525 -24 -552 -32 -44 -68 -66 -116 -71 -58 -7 -108
15 -144 63 l-29 37 -3 511 c-2 281 0 525 3 543 7 40 49 91 90 109 45 21 117
12 158 -19z m640 0 c70 -53 68 -37 65 -621 -3 -512 -3 -525 -24 -552 -32 -44
-68 -66 -116 -71 -58 -7 -108 15 -144 63 l-29 37 -3 511 c-2 281 0 525 3 543
7 40 49 91 90 109 45 21 117 12 158 -19z m640 0 c51 -39 67 -81 67 -177 0 -82
0 -82 -50 -156 -93 -141 -127 -313 -96 -492 15 -89 65 -254 100 -334 l16 -37
-36 -22 c-77 -47 -168 -32 -220 37 l-29 37 -3 511 c-2 281 0 525 3 543 7 40
49 91 90 109 45 21 117 12 158 -19z m617 -242 c16 -47 57 -95 97 -111 95 -40
208 18 230 119 5 25 9 27 57 27 68 0 165 -24 228 -56 109 -55 211 -181 243
-298 23 -85 16 -267 -14 -377 -67 -245 -211 -464 -347 -526 -48 -22 -65 -25
-118 -20 -33 3 -94 17 -134 31 l-72 25 -67 -25 c-37 -14 -97 -28 -134 -31 -57
-5 -74 -2 -123 20 -124 57 -252 236 -334 469 -101 286 -76 486 82 644 94 94
206 142 333 143 l61 1 12 -35z"/>
<path d="M4331 1404 c-40 -50 -25 -82 68 -153 18 -13 42 -44 56 -70 26 -52 39
-65 73 -75 30 -10 82 41 82 81 -1 62 -64 157 -144 215 -52 38 -106 38 -135 2z"/>
</g>
</svg>
